<?xml version="1.0" encoding="UTF-8"?>
<svg id="_图层_1" data-name="图层_1" xmlns="http://www.w3.org/2000/svg" version="1.1" xmlns:xlink="http://www.w3.org/1999/xlink" viewBox="0 0 198 65">
  <!-- Generator: Adobe Illustrator 29.0.0, SVG Export Plug-In . SVG Version: 2.1.0 Build 186)  -->
  <defs>
    <style>
      .st0 {
        fill: url(#_未命名的渐变_730);
      }

      .st1 {
        fill: url(#_未命名的渐变_7301);
      }

      .st2 {
        fill: url(#_未命名的渐变_33);
      }

      .st3 {
        fill: url(#_未命名的渐变_7302);
      }
    </style>
    <linearGradient id="_未命名的渐变_33" data-name="未命名的渐变 33" x1="858.33" y1="2599.12" x2="1055.82" y2="2599.12" gradientTransform="translate(-857.82 2631.62) scale(1 -1)" gradientUnits="userSpaceOnUse">
      <stop offset=".31" stop-color="#e2bd86"/>
      <stop offset=".44" stop-color="#d9b57f"/>
      <stop offset=".64" stop-color="#c09f6f"/>
      <stop offset=".9" stop-color="#997c54"/>
      <stop offset="1" stop-color="#896e49"/>
    </linearGradient>
    <linearGradient id="_未命名的渐变_730" data-name="未命名的渐变 730" x1="-459.86" y1="-941.35" x2="-426.98" y2="-941.35" gradientTransform="translate(-886.05 475.71) rotate(90)" gradientUnits="userSpaceOnUse">
      <stop offset="0" stop-color="#000"/>
      <stop offset=".07" stop-color="#100b05"/>
      <stop offset=".26" stop-color="#352311"/>
      <stop offset=".45" stop-color="#52371b"/>
      <stop offset=".64" stop-color="#674422"/>
      <stop offset=".82" stop-color="#734d26"/>
      <stop offset="1" stop-color="#785028"/>
    </linearGradient>
    <linearGradient id="_未命名的渐变_7301" data-name="未命名的渐变 730" y1="-979.23" x2="-426.98" y2="-979.23" xlink:href="#_未命名的渐变_730"/>
    <linearGradient id="_未命名的渐变_7302" data-name="未命名的渐变 730" y1="-1029.3" x2="-426.98" y2="-1029.3" xlink:href="#_未命名的渐变_730"/>
  </defs>
  <path class="st2" d="M33.01,0h164.99v65H33.01C15.07,65,.51,50.44.51,32.5h0C.51,14.56,15.07,0,33.01,0Z"/>
  <g>
    <path class="st0" d="M64.8,39.33l3.52-12.31c.35-1.2.61-2.37.79-3.49.18-1.12.27-2.08.27-2.88,0-1.37-.34-2.37-1.03-2.99-.69-.62-1.79-.94-3.31-.94h-.2s.29-.88.29-.88h12.76s-.22.88-.22.88h-.2c-1.93,0-3.51.72-4.74,2.15-1.23,1.43-2.35,3.91-3.34,7.43l-6.39,22.42h-7.02s-9.48-25.99-9.48-25.99l-4.16,14.84c-.36,1.25-.64,2.43-.82,3.54-.19,1.11-.28,2.06-.28,2.85,0,1.37.34,2.36,1.02,2.97.68.61,1.78.91,3.32.91h.2s-.25.88-.25.88h-12.8s.27-.88.27-.88h.29c1.9,0,3.44-.71,4.64-2.12,1.2-1.41,2.3-3.9,3.31-7.45l4.81-16.78-.52-1.36c-.51-1.37-1.05-2.28-1.63-2.73s-1.39-.68-2.44-.68h-.45s.23-.88.23-.88h14.97s8.6,23.48,8.6,23.48Z"/>
    <path class="st1" d="M92.33,31.92h1.53c2.56,0,4.58-.61,6.06-1.82,1.48-1.21,2.82-3.39,4.01-6.54h1.02s-5.26,18.36-5.26,18.36h-1.02c.2-.69.34-1.39.44-2.1s.15-1.42.15-2.15c0-1.67-.42-2.9-1.25-3.69-.84-.79-2.14-1.19-3.92-1.19h-2.03s-2.6,9.12-2.6,9.12c-.15.5-.26.96-.34,1.4-.07.44-.11.84-.11,1.2,0,1.15.44,1.98,1.33,2.52.89.53,2.27.8,4.16.8,3.52,0,6.71-1.03,9.58-3.09,2.86-2.06,5.37-5.15,7.54-9.26h.88s-3.8,13.23-3.8,13.23h-38.71s.23-.88.23-.88h1.58c1.58,0,2.68-.23,3.3-.7.62-.47,1.17-1.53,1.65-3.18l6.66-23.25c.14-.49.24-.92.3-1.29s.1-.69.1-.95c0-.62-.2-1.07-.6-1.34-.4-.27-1.07-.4-2.02-.4h-2.05s.29-.88.29-.88h36.94s-3.93,13.73-3.93,13.73h-.77c.07-.57.13-1.07.16-1.49.03-.42.05-.82.05-1.2,0-3.33-.99-5.85-2.96-7.58-1.97-1.72-4.87-2.59-8.69-2.59-1.4,0-2.42.25-3.05.74-.63.5-1.19,1.58-1.67,3.24l-3.18,11.22Z"/>
    <path class="st3" d="M123.09,48.72l.43-25.99v-1.11c0-1.97-.23-3.28-.7-3.93-.47-.65-1.33-.97-2.6-.97h-.75s.2-.88.2-.88h17.19s-.23.88-.23.88c-1.25.17-2.11.6-2.57,1.31s-.71,2.13-.75,4.27l-.34,16.44,7.88-13.55.18-5.33v-.27c0-1.08-.21-1.82-.62-2.21-.41-.39-1.18-.62-2.29-.68l.23-.86h15.81s-.23.88-.23.88h-.79c-.83,0-1.43.33-1.82.99s-.59,1.76-.62,3.3l-.29,17.68,8.11-13.89c.6-1.02,1.08-2.03,1.42-3.02.35-.99.52-1.82.52-2.48,0-.87-.23-1.52-.68-1.94s-1.15-.63-2.1-.63h-1.11s.27-.88.27-.88h10.18s-.25.88-.25.88c-.99.08-1.96.58-2.89,1.5-.93.93-2.12,2.65-3.57,5.16l-14.77,25.34h-5.03s.34-21.75.34-21.75l-12.65,21.75h-5.13Z"/>
  </g>
</svg>