<?xml version="1.0" standalone="no"?><!DOCTYPE svg PUBLIC "-//W3C//DTD SVG 1.1//EN" "http://www.w3.org/Graphics/SVG/1.1/DTD/svg11.dtd"><svg t="1753412673350" class="icon" viewBox="0 0 1755 1024" version="1.1" xmlns="http://www.w3.org/2000/svg" p-id="4385" width="68.5546875" height="40" xmlns:xlink="http://www.w3.org/1999/xlink"><path d="M73.142857 219.428571c0 36.571429 29.257143 73.142857 73.142857 73.142858s73.142857-29.257143 73.142857-73.142858-36.571429-73.142857-73.142857-73.142857-73.142857 29.257143-73.142857 73.142857z m833.828572 29.257143H343.771429c-21.942857 0-43.885714-21.942857-43.885715-43.885714s21.942857-43.885714 43.885715-43.885714h570.514285c21.942857 0 43.885714 21.942857 43.885715 43.885714-7.314286 29.257143-29.257143 43.885714-51.2 43.885714zM73.142857 512c0 36.571429 29.257143 73.142857 73.142857 73.142857s73.142857-29.257143 73.142857-73.142857-36.571429-73.142857-73.142857-73.142857-73.142857 36.571429-73.142857 73.142857z m833.828572 36.571429H343.771429c-21.942857 0-43.885714-21.942857-43.885715-43.885715s21.942857-43.885714 43.885715-43.885714h570.514285c21.942857 0 43.885714 21.942857 43.885715 43.885714-7.314286 21.942857-29.257143 43.885714-51.2 43.885715zM73.142857 804.571429c0 36.571429 29.257143 73.142857 73.142857 73.142857s73.142857-29.257143 73.142857-73.142857-36.571429-73.142857-73.142857-73.142858-73.142857 36.571429-73.142857 73.142858z m833.828572 36.571428H343.771429c-21.942857 0-43.885714-21.942857-43.885715-43.885714s21.942857-43.885714 43.885715-43.885714h570.514285c21.942857 0 43.885714 21.942857 43.885715 43.885714-7.314286 21.942857-29.257143 43.885714-51.2 43.885714z" fill="#ffffff" p-id="4386"></path></svg>